<svg xmlns="http://www.w3.org/2000/svg" viewBox="0 0 1000 1000">
  <style type="text/css">
	.st0{fill:#EE2844;}
	.st1{fill:#FFFFFF;}
</style>
  <g>
    <rect x="4.1" y="4.1" class="st0" width="991.8" height="991.8"/>
    <path id="path6-1" class="st1" d="M678,173.6v205c-46.8-44.8-110.2-72.5-180.1-72.5c-143.8,0-260.4,116.5-260.4,260.1   s116.6,260.1,260.4,260.1c69.9,0,133.3-27.7,180.1-72.5v56.3h84.5V173.6L678,173.6L678,173.6z M497.9,371.7   c81.3,0,150.9,49.7,180.1,120.4v148.3c-29.2,70.7-98.8,120.4-180.1,120.4c-107.6,0-194.8-87.2-194.8-194.6   C303.1,458.9,390.4,371.7,497.9,371.7L497.9,371.7z"/>
  </g>
</svg>
