<svg xmlns="http://www.w3.org/2000/svg" viewBox="0 0 24 24">
  <path fill="#015965" d="M8.906575 5.40085c1.701225 -1.4168 4.4855 -1.4171 6.18705 0l7.2861 6.067425c1.70095 1.416925 1.70125 3.7347 -0.0003 5.151775L15.093625 22.68735c-1.70185 1.417225 -4.486125 1.416775 -6.18705 0L1.620445 16.62005c-1.70123325 -1.416775 -1.70123325 -3.73485 -0.0003025 -5.151775L8.906575 5.40085Z" stroke-width="0.25"></path>
  <path fill="#e5e5e5" d="M8.906575 3.429275c1.701225 -1.4167825 4.4855 -1.417085 6.18705 0l7.2861 6.067425c1.70095 1.4171 1.70125 3.735025 -0.0003 5.15195L15.093625 20.715925c-1.70185 1.41725 -4.486125 1.4168 -6.18705 0L1.620445 14.64865c-1.70123325 -1.416925 -1.70123325 -3.73485 -0.0003025 -5.15195L8.906575 3.429275Z" stroke-width="0.25"></path>
  <path fill="#35bbce" d="M15.093625 1.312705 22.379725 7.380125c1.70095 1.4171 1.70125 3.735025 -0.0003 5.15195L15.093625 18.59935c-1.70185 1.41725 -4.486125 1.4168 -6.18705 0L1.620445 12.532075c-1.70123325 -1.416925 -1.70123325 -3.73485 -0.0003025 -5.15195L8.906575 1.312705c1.701225 -1.4167885 4.4855 -1.417091 6.18705 0Z" stroke-width="0.25"></path>
  <path fill="#ffffff" d="M22.591025 7.5758c-0.067 -0.0645 -0.13595 -0.1279 -0.20945 -0.189075L15.09495 1.31371c-1.7017 -1.4184315 -4.486225 -1.41812875 -6.1876 0L1.6202575 7.386725c-1.70108425 1.4186 -1.701084 3.7387 0.0003025 5.156975l0.78415 0.65345C4.455 10.73475 11.369275 3.910975 22.591025 7.5758Z" opacity=".15" stroke-width="0.25"></path>
</svg>