<svg xmlns="http://www.w3.org/2000/svg" viewBox="0 0 374 374">
  <rect x="0" y="0" width="100%" height="100%" fill="black"/>
  <g transform="translate(19,19)">
    <path d="M143.5 14.1451C158.661 5.39207 177.339 5.39207 192.5 14.1451L288.992 69.8549C304.153 78.6079 313.492 94.7841 313.492 112.29V223.71C313.492 241.216 304.153 257.392 288.992 266.145L192.5 321.855C177.339 330.608 158.661 330.608 143.5 321.855L47.0077 266.145C31.8471 257.392 22.5077 241.216 22.5077 223.71V112.29C22.5077 94.7841 31.8471 78.6079 47.0077 69.8549L143.5 14.1451Z" fill="white"/>
    <path d="M218.83 159.202C226.678 156.051 234.757 163.21 232.573 171.381L213.254 243.652C211.283 251.026 202.239 253.747 196.526 248.684L146.421 204.28C140.708 199.217 142.322 189.912 149.406 187.068L218.83 159.202Z" fill="#640DFB"/>
    <path d="M125.157 224C107.375 224 93.0733 219.992 82.25 211.975C71.4267 203.819 65.01 192.347 63 177.557L99.6446 166.776C100.418 175.484 102.814 182.049 106.834 186.472C111.009 190.757 116.807 192.9 124.229 192.9C131.96 192.9 138.763 190.412 144.639 185.436C150.669 180.322 154.689 173.549 156.699 165.117L168.295 115.614C173.594 92.9947 193.768 77 217 77L194.271 171.544C191.797 182.188 187.236 191.449 180.587 199.327C174.093 207.206 166.053 213.288 156.467 217.573C147.035 221.858 136.598 224 125.157 224Z" fill="black"/>
  </g>
</svg>